:SAMPLES-PER-SECOND 30
:FULLY-SPECIFIED
:DEGREES
198
root  6.78907 37.2616 -46.8393 39.216 -73.9025 -36.3875
RightUpLeg  -13.7934 -3.44512 5.59854
RightLeg  36.5341 -2.48772 -2.23441
RightFoot  -17.7182 0.627234 13.2544
RightToes  1.16414e-010 0 -3.6325e-017
Spine  7.78114 1.98022 -0.967354
Spine1  1.25844 -1.9245 20.1846
HEad  -12.8932 6.58873 -20.7284
LeftShoulder1  0.169822 2.17962 -5.10683
LeftArm  1.3523 28.3699 -34.578
LeftForeArm  -4.68944 -8.2068 -13.4742
LeftHand  -0.0960875 6.71149 -4.67712
RightShoulder  0.59867 -1.18954 19.5457
RightArm  -43.8929 -28.5513 46.148
RightForeArm  -3.36756 55.341 16.7841
RightHand  94.083 48.0489 130.876
LeftUpLeg  -3.64818 0.417786 1.8892
LeftLeg  56.0596 5.41221 9.01592
LeftFoot  -3.99928 1.3116 -19.9631
LeftToes  7.09373e-011 9.9627e-011 8.96859e-012
199
root  7.02734 37.3094 -47.2522 36.071 -69.4985 -31.8039
RightUpLeg  -14.1532 -4.66181 8.25864
RightLeg  33.6378 -6.08224 -4.54833
RightFoot  -18.0535 0.65946 13.3102
RightToes  1.16414e-010 0 -3.6325e-017
Spine  8.97317 1.60625 -3.19326
Spine1  -0.523587 -3.02873 25.7986
HEad  -15.1211 4.89564 -22.3104
LeftShoulder1  0.343626 0.794806 -4.71381
LeftArm  21.7931 30.2582 -35.3634
LeftForeArm  -13.3267 -16.6495 -10.6631
LeftHand  -0.271131 8.51108 -7.63715
RightShoulder  0.197859 -2.63736 16.6962
RightArm  -50.8436 -32.0751 41.1091
RightForeArm  -16.1952 63.4545 25.2312
RightHand  59.7423 38.7701 110.643
LeftUpLeg  -9.26917 0.914824 4.50108
LeftLeg  67.4914 2.80366 8.28208
LeftFoot  -5.34296 1.07449 -19.7504
LeftToes  7.09373e-011 9.9627e-011 8.96859e-012
200
root  7.31437 38.134 -47.4703 31.5911 -65.9925 -26.3616
RightUpLeg  -12.864 -4.88067 8.85718
RightLeg  27.7668 -9.511 -5.66712
RightFoot  -12.9399 0.110835 14.025
RightToes  1.16414e-010 0 -3.6325e-017
Spine  11.044 1.21537 -6.5555
Spine1  -1.93806 -4.19761 30.8246
HEad  -16.9501 4.5731 -20.1475
LeftShoulder1  0.54293 -0.721929 -5.00867
LeftArm  40.6937 34.1591 -34.0412
LeftForeArm  -10.0352 -27.389 -5.80315
LeftHand  -0.503495 9.34814 -12.8833
RightShoulder  -0.0664488 -3.80066 13.4686
RightArm  -59.0641 -34.4091 34.3855
RightForeArm  -25.6452 70.9597 39.7294
RightHand  27.3244 21.0247 92.6259
LeftUpLeg  -14.8205 0.868216 4.63409
LeftLeg  79.2418 1.10038 8.94871
LeftFoot  -5.77243 0.913513 -17.8703
LeftToes  7.09373e-011 9.9627e-011 8.96859e-012
201
root  7.65824 39.414 -47.3627 28.8843 -65.2997 -23.0229
RightUpLeg  -10.7913 -5.95027 7.14969
RightLeg  20.236 -9.11955 -3.79612
RightFoot  -3.78066 -1.01778 14.8213
RightToes  1.16414e-010 0 -3.6325e-017
Spine  13.2404 1.82027 -8.44426
Spine1  -2.82095 -3.8055 31.4385
HEad  -17.0435 5.60355 -14.7414
LeftShoulder1  0.74963 -2.69472 -4.19419
LeftArm  44.7321 39.2432 -31.8522
LeftForeArm  7.50803 -36.6662 -7.91814
LeftHand  -0.843477 10.2928 -17.6034
RightShoulder  -0.280036 -5.04432 10.6303
RightArm  -67.7548 -35.5247 26.1218
RightForeArm  -13.641 75.8305 60.6389
RightHand  10.4458 8.28386 76.0219
LeftUpLeg  -19.0673 2.18487 2.17779
LeftLeg  89.3133 -0.463532 9.33878
LeftFoot  -7.77471 0.535367 -15.6489
LeftToes  7.09373e-011 9.9627e-011 8.96859e-012
202
root  8.19254 40.6008 -46.9833 30.0703 -67.8904 -24.29
RightUpLeg  -9.69811 -6.72663 4.48199
RightLeg  14.7746 -5.69141 -0.941032
RightFoot  7.0529 -2.69961 16.7657
RightToes  1.16414e-010 0 -3.6325e-017
Spine  15.5601 2.97461 -7.27007
Spine1  -2.73437 -2.10437 27.4667
HEad  -16.2714 7.47117 -9.89582
LeftShoulder1  1.09264 -5.85289 -3.63204
LeftArm  51.815 46.1843 -30.5049
LeftForeArm  12.9023 -43.7477 -9.82123
LeftHand  -2.32717 15.3606 -23.9836
RightShoulder  -0.496918 -6.84852 7.2572
RightArm  -75.9623 -32.8731 19.7256
RightForeArm  35.2092 77.4302 96.7421
RightHand  5.58893 4.01048 62.4473
LeftUpLeg  -21.7593 5.48026 -1.29995
LeftLeg  97.3244 -1.56737 7.89849
LeftFoot  -10.2207 0.20686 -15.1482
LeftToes  7.09373e-011 9.9627e-011 8.96859e-012
203
root  8.81498 41.4476 -46.6324 34.9948 -71.5267 -30.5798
RightUpLeg  -9.67178 -5.83328 3.07286
RightLeg  13.557 -2.75725 -0.0848735
RightFoot  15.4242 -4.49695 19.2538
RightToes  1.16414e-010 0 -3.6325e-017
Spine  18.4532 3.31819 -5.28292
Spine1  -0.914459 -1.23879 22.4788
HEad  -18.4821 9.38618 -8.38336
LeftShoulder1  1.61758 -9.10039 -4.95481
LeftArm  53.8987 53.8538 -31.0739
LeftForeArm  15.6372 -47.3619 -11.0242
LeftHand  -4.12126 18.1947 -34.3981
RightShoulder  -0.5474 -8.77107 2.16263
RightArm  -80.2965 -24.108 20.3572
RightForeArm  106.082 69.7909 144.446
RightHand  3.31875 1.7592 56.6715
LeftUpLeg  -23.1211 8.74072 -3.5892
LeftLeg  102.632 -1.93239 6.21211
LeftFoot  -12.1461 -0.0339148 -15.2271
LeftToes  7.09373e-011 9.9627e-011 8.96859e-012
204
root  9.42309 42.0835 -46.4292 42.0324 -74.5855 -39.8833
RightUpLeg  -9.53364 -2.17434 2.69961
RightLeg  15.1301 -1.86206 -0.672904
RightFoot  18.5022 -5.19417 19.8223
RightToes  1.16414e-010 0 -3.6325e-017
Spine  21.916 2.72825 -4.52156
Spine1  2.2801 -1.5507 17.547
HEad  -24.0332 12.03 -5.93355
LeftShoulder1  2.0341 -10.2436 -7.21706
LeftArm  44.1913 58.9127 -35.9048
LeftForeArm  17.4943 -50.4576 -12.26
LeftHand  -3.85506 16.5447 -36.5547
RightShoulder  -0.345204 -9.36087 -3.09512
RightArm  -71.3165 -8.97355 25.3392
RightForeArm  169.278 55.6804 165.433
RightHand  16.3182 15.1146 63.4842
LeftUpLeg  -24.1174 10.1958 -4.19054
LeftLeg  103.78 -2.19991 6.74244
LeftFoot  -13.6992 -0.198448 -13.6346
LeftToes  7.09373e-011 9.9627e-011 8.96859e-012
205
root  10.0178 42.55 -46.3031 49.6772 -77.1098 -49.5022
RightUpLeg  -9.25741 2.19586 1.89661
RightLeg  17.1529 -0.961559 -0.570181
RightFoot  18.4058 -4.88192 18.7351
RightToes  1.16414e-010 0 -3.6325e-017
Spine  25.5169 1.92874 -4.38076
Spine1  5.12242 -1.39181 10.5136
HEad  -28.5116 13.8614 -1.68214
LeftShoulder1  1.99401 -9.29228 -8.06747
LeftArm  24.5108 58.8429 -44.6598
LeftForeArm  13.1603 -56.4009 -16.1224
LeftHand  -2.53558 18.1857 -20.3635
RightShoulder  -0.15442 -7.48499 -5.13437
RightArm  -45.4638 6.53644 30.2858
RightForeArm  -114.037 51.2545 171.983
RightHand  55.5098 53.6292 91.0436
LeftUpLeg  -25.6817 9.20975 -3.92717
LeftLeg  99.471 -2.1306 9.11954
LeftFoot  -14.9669 -0.254255 -10.8463
LeftToes  7.09373e-011 9.9627e-011 8.96859e-012
206
root  10.5737 42.7152 -46.2204 58.5489 -79.475 -58.7711
RightUpLeg  -9.86881 4.35291 0.533781
RightLeg  18.0845 1.42604 0.312639
RightFoot  19.8141 -5.26706 19.2021
RightToes  1.16414e-010 0 -3.6325e-017
Spine  28.1992 1.27804 -3.80644
Spine1  6.33181 0.191422 0.71363
HEad  -28.1336 10.4403 0.0953173
LeftShoulder1  1.92178 -8.21735 -8.99403
LeftArm  6.41738 51.5978 -51.0786
LeftForeArm  7.0669 -64.3433 -23.8246
LeftHand  0.531996 16.6991 7.56411
RightShoulder  0.00481128 -3.65677 -3.10505
RightArm  -15.9012 11.2984 35.8973
RightForeArm  -150.151 59.1184 166.682
RightHand  9.79257 10.4549 59.127
LeftUpLeg  -27.9523 6.65386 -3.07769
LeftLeg  89.6292 -0.605467 11.1627
LeftFoot  -16.4365 -0.320001 -9.33167
LeftToes  7.09373e-011 9.9627e-011 8.96859e-012
207
root  11.0191 42.6481 -46.2642 56.7318 -81.811 -56.4248
RightUpLeg  -9.81603 4.07569 -2.02662
RightLeg  17.4301 3.32681 0.966506
RightFoot  23.243 -6.72074 21.8961
RightToes  1.16414e-010 0 -3.6325e-017
Spine  30.0939 0.643703 -4.01428
Spine1  6.82682 2.00548 -9.56412
HEad  -21.5435 0.458072 -3.94972
LeftShoulder1  2.31262 -8.18466 -12.711
LeftArm  -1.71497 34.4824 -50.5609
LeftForeArm  3.4868 -68.7601 -31.0073
LeftHand  0.703597 8.06817 24.49
RightShoulder  0.366084 0.115718 1.89391
RightArm  8.18753 6.10515 41.8523
RightForeArm  169.17 74.8767 140.125
RightHand  -0.331786 -6.622 -27.7139
LeftUpLeg  -29.4298 3.36794 -2.44977
LeftLeg  74.6639 2.5944 11.9552
LeftFoot  -18.0256 -0.453529 -9.59395
LeftToes  7.09373e-011 9.9627e-011 8.96859e-012
208
root  11.2623 42.4087 -46.4312 37.4716 -82.1346 -34.8867
RightUpLeg  -9.40217 2.01973 -4.56193
RightLeg  15.6894 4.20211 1.14116
RightFoot  23.9354 -7.32311 23.3228
RightToes  1.16414e-010 0 -3.6325e-017
Spine  30.3258 -0.682594 -4.11026
Spine1  7.66158 3.04627 -18.5565
HEad  -11.8841 -11.5549 -12.8301
LeftShoulder1  3.09776 -8.86538 -18.4747
LeftArm  -1.69714 8.80391 -46.9325
LeftForeArm  -6.24227 -67.7498 -30.5935
LeftHand  -0.639939 2.36969 25.0869
RightShoulder  0.826372 1.96017 7.78184
RightArm  22.1634 -1.45905 49.8273
RightForeArm  76.1521 73.7617 32.0059
RightHand  -0.0311648 -5.64109 -13.1436
LeftUpLeg  -30.9395 -0.652395 -1.51954
LeftLeg  55.3339 7.26992 11.6252
LeftFoot  -18.9395 -0.528739 -9.64678
LeftToes  7.09373e-011 9.9627e-011 8.96859e-012
